<?xml version="1.0" encoding="UTF-8"?>
<svg width="458px" height="64px" viewBox="0 0 458 64" version="1.1" xmlns="http://www.w3.org/2000/svg" xmlns:xlink="http://www.w3.org/1999/xlink">
    <!-- Generator: Sketch 54.1 (76490) - https://sketchapp.com -->
    <title>nubes</title>
    <desc>Created with Sketch.</desc>
    <defs>
        <rect id="path-1" x="0" y="0" width="458" height="64"></rect>
    </defs>
    <g id="Page-1" stroke="none" stroke-width="1" fill="none" fill-rule="evenodd">
        <g id="Combined-Shape">
            <mask id="mask-2" fill="white">
                <use xlink:href="#path-1"></use>
            </mask>
            <use id="Mask" fill="#FFFFFF" xlink:href="#path-1"></use>
            <path d="M101.965102,30.0039994 C110.325522,30.147882 117.742493,34.1634306 122.5,40.3346301 C125.895585,35.9300481 130.645935,32.6235833 136.127136,31.0391519 C137.627409,13.647905 152.219885,0 170,0 C182.846979,0 194.02977,7.1252296 199.812137,17.63945 C205.457848,13.466856 212.440841,11 220,11 C234.895398,11 247.553599,20.5785794 252.151051,33.9121857 C256.88349,31.4141839 262.276595,30 268,30 C276.933992,30 285.063177,33.4457832 291.131041,39.0808329 C296.867607,26.0768185 309.873801,17 325,17 C341.46422,17 355.416787,27.7536614 360.217069,42.6203514 C362.415972,42.2129523 364.683117,42 367,42 C376.774296,42 385.663378,45.7900507 392.277798,51.9807035 C395.934797,50.0763985 400.091695,49 404.5,49 C404.743377,49 404.985989,49.0032809 405.227792,49.0098008 C406.936308,36.0237865 418.047564,26 431.5,26 C446.135546,26 458,37.8644541 458,52.5 L458,118 L0,118 L0,55 C0.00154520435,54.8336864 0,54.6670237 0,54.5 C0,39.8644541 11.8644541,28 26.5,28 C31.0211859,28 35.2779254,29.13223 39.0021443,31.1286158 C39.2011514,13.9027623 53.2269937,0 70.5,0 C87.3954793,0 101.184186,13.301673 101.965102,30.0039994 Z" fill="#F2F6FF" mask="url(#mask-2)"></path>
        </g>
    </g>
</svg>