<?xml version="1.0" encoding="utf-8"?>
<!-- Generator: Adobe Illustrator 16.0.0, SVG Export Plug-In . SVG Version: 6.00 Build 0)  -->
<!DOCTYPE svg PUBLIC "-//W3C//DTD SVG 1.1//EN" "http://www.w3.org/Graphics/SVG/1.1/DTD/svg11.dtd">
<svg version="1.1" id="Layer_1" xmlns="http://www.w3.org/2000/svg" xmlns:xlink="http://www.w3.org/1999/xlink" x="0px" y="0px"
	 width="320.874px" height="200px" viewBox="0 0 320.874 200" enable-background="new 0 0 320.874 200" xml:space="preserve">
<g>
	<rect x="271.329" y="165.544" fill="#DECCC6" width="26.37" height="0.698"/>
	<rect x="277.411" y="148.748" fill="#DECCC6" width="26.372" height="0.699"/>
	<rect x="278.307" y="146.625" fill="#DECCC6" width="15.884" height="0.699"/>
	<rect x="267.716" y="150.873" fill="#DECCC6" width="30.043" height="0.697"/>
	<rect x="259.468" y="81.463" fill="#DECCC6" width="26.371" height="0.699"/>
	<rect x="282.328" y="40.362" fill="#DECCC6" width="26.371" height="0.699"/>
	<rect x="278.46" y="42.485" fill="#DECCC6" width="15.884" height="0.699"/>
	<linearGradient id="SVGID_1_" gradientUnits="userSpaceOnUse" x1="262.5181" y1="32.1772" x2="282.5649" y2="32.1772">
		<stop  offset="0" style="stop-color:#F39147"/>
		<stop  offset="1" style="stop-color:#FECE48"/>
	</linearGradient>
	<rect x="262.518" y="30.96" fill="url(#SVGID_1_)" width="20.047" height="2.434"/>
	<linearGradient id="SVGID_2_" gradientUnits="userSpaceOnUse" x1="261.8892" y1="29.7437" x2="281.937" y2="29.7437">
		<stop  offset="0" style="stop-color:#F18633"/>
		<stop  offset="1" style="stop-color:#F2C23F"/>
	</linearGradient>
	<rect x="261.889" y="28.527" fill="url(#SVGID_2_)" width="20.048" height="2.434"/>
	<linearGradient id="SVGID_3_" gradientUnits="userSpaceOnUse" x1="261.4438" y1="27.3101" x2="281.4907" y2="27.3101">
		<stop  offset="0" style="stop-color:#F39147"/>
		<stop  offset="1" style="stop-color:#FECE48"/>
	</linearGradient>
	<rect x="261.444" y="26.093" fill="url(#SVGID_3_)" width="20.047" height="2.434"/>
	<linearGradient id="SVGID_4_" gradientUnits="userSpaceOnUse" x1="262.2622" y1="24.876" x2="282.3091" y2="24.876">
		<stop  offset="0" style="stop-color:#F18633"/>
		<stop  offset="1" style="stop-color:#F2C23F"/>
	</linearGradient>
	<rect x="262.262" y="23.659" fill="url(#SVGID_4_)" width="20.047" height="2.435"/>
	
		<linearGradient id="SVGID_5_" gradientUnits="userSpaceOnUse" x1="987.4351" y1="-1493.6768" x2="1007.5688" y2="-1493.6768" gradientTransform="matrix(0.9754 0.2204 -0.2204 0.9754 -1028.0491 1259.6273)">
		<stop  offset="0" style="stop-color:#F39147"/>
		<stop  offset="1" style="stop-color:#FECE48"/>
	</linearGradient>
	<polygon fill="url(#SVGID_5_)" points="284.113,24.001 264.072,23.521 264.129,21.088 284.17,21.568 	"/>
	<linearGradient id="SVGID_6_" gradientUnits="userSpaceOnUse" x1="2.5112" y1="165.6855" x2="130.9321" y2="165.6855">
		<stop  offset="0" style="stop-color:#699BD3"/>
		<stop  offset="1" style="stop-color:#584294"/>
	</linearGradient>
	<path fill="url(#SVGID_6_)" d="M122.688,183.458H26.576c-3.683,0-6.668-2.985-6.668-6.669v-22.207c0-3.684,2.985-6.669,6.668-6.669
		h96.112V183.458z"/>
	<path fill="#4A5EA3" d="M139.139,151.572v28.229h1.68v3.659H71.065c-3.683,0-6.668-2.986-6.668-6.668v-22.211
		c0-3.684,2.985-6.669,6.668-6.669h69.753v3.659H139.139z"/>
	<path fill="#FBE6DE" d="M139.137,179.801h-63.03c-3.637,0-6.585-2.949-6.585-6.588v-15.057c0-3.638,2.948-6.586,6.585-6.586h63.03
		V179.801z"/>
	<rect x="100.841" y="165.544" fill="#DECCC6" width="27.126" height="0.698"/>
	<rect x="88.125" y="167.667" fill="#DECCC6" width="28.966" height="0.698"/>
	<linearGradient id="SVGID_7_" gradientUnits="userSpaceOnUse" x1="175.7329" y1="171.1484" x2="300.5823" y2="171.1484">
		<stop  offset="0" style="stop-color:#F59D5A"/>
		<stop  offset="1" style="stop-color:#FFD257"/>
	</linearGradient>
	<path fill="url(#SVGID_7_)" d="M292.567,183.459h-93.126c-3.753,0-6.796-3.042-6.796-6.795v-11.031
		c0-3.753,3.043-6.796,6.796-6.796h93.126V183.459z"/>
	<path fill="#F18634" d="M308.56,161.374v19.553h1.634v2.534h-67.501c-3.753,0-6.796-3.044-6.796-6.795v-11.033
		c0-3.751,3.043-6.794,6.796-6.794h67.501v2.535H308.56z"/>
	<path fill="#FBE6DE" d="M308.559,180.925h-60.884c-3.753,0-6.796-3.043-6.796-6.796v-5.961c0-3.754,3.043-6.796,6.796-6.796h60.884
		V180.925z"/>
	<linearGradient id="SVGID_8_" gradientUnits="userSpaceOnUse" x1="167.731" y1="144.5195" x2="305.7803" y2="144.5195">
		<stop  offset="0" style="stop-color:#699BD3"/>
		<stop  offset="1" style="stop-color:#584294"/>
	</linearGradient>
	<path fill="url(#SVGID_8_)" d="M296.917,158.837H194.968c-4.715,0-8.537-3.823-8.537-8.538v-11.557
		c0-4.716,3.822-8.539,8.537-8.539h101.949V158.837z"/>
	<path fill="#4A5EA3" d="M315.001,133.151v22.739h1.406v2.948H260.96c-4.716,0-8.538-3.823-8.538-8.538v-11.559
		c0-4.716,3.822-8.537,8.538-8.537h55.447v2.946H315.001z"/>
	<path fill="#FBE6DE" d="M315,155.889h-49.748c-4.716,0-8.538-3.821-8.538-8.536v-5.664c0-4.716,3.822-8.537,8.538-8.537H315
		V155.889z"/>
	
		<linearGradient id="SVGID_9_" gradientUnits="userSpaceOnUse" x1="-9707.9688" y1="112.6445" x2="-9599.6064" y2="112.6445" gradientTransform="matrix(-1 0 0 1 -9383.0957 0)">
		<stop  offset="0" style="stop-color:#F59D5A"/>
		<stop  offset="1" style="stop-color:#FFD257"/>
	</linearGradient>
	<path fill="url(#SVGID_9_)" d="M223.467,130.197h77.486c5.104,0,9.24-4.137,9.24-9.239v-16.625c0-5.104-4.137-9.241-9.24-9.241
		h-77.486V130.197z"/>
	<path fill="#F18634" d="M209.586,98.707v27.88h-1.417v3.612h55.244c5.104,0,9.239-4.137,9.239-9.24v-16.624
		c0-5.104-4.136-9.241-9.239-9.241h-55.244v3.613H209.586z"/>
	<path fill="#FBE6DE" d="M209.588,126.585h48.853c5.073,0,9.185-4.111,9.185-9.185v-9.51c0-5.071-4.111-9.185-9.185-9.185h-48.853
		V126.585z"/>
	
		<linearGradient id="SVGID_10_" gradientUnits="userSpaceOnUse" x1="268.6851" y1="77.5322" x2="383.4813" y2="77.5322" gradientTransform="matrix(1 0 0 1 -94.6201 0)">
		<stop  offset="0" style="stop-color:#F59D5A"/>
		<stop  offset="1" style="stop-color:#FFD257"/>
	</linearGradient>
	<path fill="url(#SVGID_10_)" d="M281.492,95.085H199.33c-5.365,0-9.714-4.35-9.714-9.714V69.694c0-5.365,4.349-9.714,9.714-9.714
		h82.162V95.085z"/>
	<path fill="#F18634" d="M296.197,63.595v27.878h1.502v3.614h-58.6c-5.365,0-9.714-4.349-9.714-9.714V69.695
		c0-5.365,4.349-9.713,9.714-9.713h58.6v3.613H296.197z"/>
	<path fill="#FBE6DE" d="M296.197,91.472h-52.039c-5.343,0-9.674-4.331-9.674-9.673v-8.532c0-5.342,4.331-9.673,9.674-9.673h52.039
		V91.472z"/>
	
		<linearGradient id="SVGID_11_" gradientUnits="userSpaceOnUse" x1="291.8579" y1="46.6875" x2="406.6542" y2="46.6875" gradientTransform="matrix(1 0 0 1 -94.6201 0)">
		<stop  offset="0" style="stop-color:#699BD3"/>
		<stop  offset="1" style="stop-color:#584294"/>
	</linearGradient>
	<path fill="url(#SVGID_11_)" d="M304.665,59.97h-85.847c-3.329,0-6.029-2.7-6.029-6.03V39.434c0-3.33,2.7-6.029,6.029-6.029h85.847
		V59.97z"/>
	<path fill="#4A5EA3" d="M319.372,36.14v21.097h1.502v2.735h-62.285c-3.331,0-6.029-2.7-6.029-6.029V39.435
		c0-3.33,2.698-6.03,6.029-6.03h62.285v2.735H319.372z"/>
	<path fill="#FBE6DE" d="M319.37,57.236h-56.2c-3.329,0-6.029-2.699-6.029-6.029v-9.039c0-3.33,2.7-6.029,6.029-6.029h56.2V57.236z"
		/>
	<rect x="258.965" y="167.667" fill="#DECCC6" width="28.16" height="0.698"/>
	<rect x="224.746" y="118.55" fill="#DECCC6" width="26.371" height="0.7"/>
	<rect x="225.641" y="116.427" fill="#DECCC6" width="15.884" height="0.698"/>
	<rect x="250.356" y="85.711" fill="#DECCC6" width="26.372" height="0.699"/>
	<rect x="255.6" y="83.587" fill="#DECCC6" width="15.885" height="0.699"/>
	<rect x="218.562" y="103.522" fill="#DECCC6" width="30.043" height="0.698"/>
	
		<linearGradient id="SVGID_12_" gradientUnits="userSpaceOnUse" x1="-9944.75" y1="134.2969" x2="-9816.3281" y2="134.2969" gradientTransform="matrix(-1 0 0 1 -9806.4414 0)">
		<stop  offset="0" style="stop-color:#F59D5A"/>
		<stop  offset="1" style="stop-color:#FFD257"/>
	</linearGradient>
	<path fill="url(#SVGID_12_)" d="M18.131,148.019h95.855c3.824,0,6.926-3.1,6.926-6.925v-13.592c0-3.825-3.102-6.927-6.926-6.927
		H18.131V148.019z"/>
	<path fill="#F18634" d="M1.68,123.402v21.794H0v2.824h69.497c3.824,0,6.925-3.102,6.925-6.925v-13.594
		c0-3.823-3.101-6.925-6.925-6.925H0v2.825H1.68z"/>
	<path fill="#FBE6DE" d="M1.682,145.194h63.983c3.812,0,6.901-3.091,6.901-6.901v-7.992c0-3.811-3.089-6.9-6.901-6.9H1.682V145.194z
		"/>
	<rect x="12.852" y="134.188" fill="#DECCC6" width="27.125" height="0.541"/>
	<rect x="23.729" y="135.826" fill="#DECCC6" width="28.965" height="0.541"/>
	<linearGradient id="SVGID_13_" gradientUnits="userSpaceOnUse" x1="12.9199" y1="111.0703" x2="156.5101" y2="111.0703">
		<stop  offset="0" style="stop-color:#699BD3"/>
		<stop  offset="1" style="stop-color:#584294"/>
	</linearGradient>
	<path fill="url(#SVGID_13_)" d="M147.292,120.575H36.689c-2.385,0-4.319-1.933-4.319-4.318v-10.371c0-2.388,1.934-4.32,4.319-4.32
		h110.602V120.575z"/>
	<path fill="#4A5EA3" d="M163.743,103.522v15.098h1.68v1.957H93.17c-2.303,0-4.17-1.866-4.17-4.169v-10.672
		c0-2.305,1.867-4.171,4.17-4.171h72.252v1.957H163.743z"/>
	<path fill="#FBE6DE" d="M163.742,118.618H96.527c-2.302,0-4.168-1.866-4.168-4.168v-6.759c0-2.303,1.866-4.169,4.168-4.169h67.214
		V118.618z"/>
	<rect x="125.446" y="106.746" fill="#DECCC6" width="27.125" height="0.539"/>
	<rect x="112.729" y="112.131" fill="#DECCC6" width="28.966" height="0.373"/>
	<linearGradient id="SVGID_14_" gradientUnits="userSpaceOnUse" x1="8.7529" y1="92.0596" x2="113.2087" y2="92.0596">
		<stop  offset="0" style="stop-color:#F59D5A"/>
		<stop  offset="1" style="stop-color:#FFD257"/>
	</linearGradient>
	<path fill="url(#SVGID_14_)" d="M106.502,101.565H26.961c-2.241,0-4.059-1.819-4.059-4.06V86.613c0-2.242,1.818-4.059,4.059-4.059
		h79.541V101.565z"/>
	<path fill="#F18634" d="M118.47,84.511v15.098h1.222v1.957H68.274c-2.306,0-4.175-1.869-4.175-4.174V86.73
		c0-2.306,1.869-4.175,4.175-4.175h51.418v1.957H118.47z"/>
	<path fill="#FBE6DE" d="M118.469,99.608H70.034c-1.929,0-3.493-1.563-3.493-3.493v-8.112c0-1.929,1.564-3.493,3.493-3.493h48.435
		V99.608z"/>
	<rect x="90.61" y="87.734" fill="#DECCC6" width="19.733" height="0.539"/>
	<rect x="81.359" y="93.119" fill="#DECCC6" width="21.071" height="0.375"/>
	<g>
		<linearGradient id="SVGID_15_" gradientUnits="userSpaceOnUse" x1="232.6802" y1="29.1826" x2="260.7739" y2="29.1826">
			<stop  offset="0" style="stop-color:#F39147"/>
			<stop  offset="1" style="stop-color:#FECE48"/>
		</linearGradient>
		<rect x="232.68" y="27.477" fill="url(#SVGID_15_)" width="28.094" height="3.411"/>
		<linearGradient id="SVGID_16_" gradientUnits="userSpaceOnUse" x1="233.7046" y1="25.7715" x2="261.7983" y2="25.7715">
			<stop  offset="0" style="stop-color:#F18633"/>
			<stop  offset="1" style="stop-color:#F2C23F"/>
		</linearGradient>
		<rect x="233.705" y="24.066" fill="url(#SVGID_16_)" width="28.094" height="3.411"/>
		<linearGradient id="SVGID_17_" gradientUnits="userSpaceOnUse" x1="233.1323" y1="22.3613" x2="261.2261" y2="22.3613">
			<stop  offset="0" style="stop-color:#F39147"/>
			<stop  offset="1" style="stop-color:#FECE48"/>
		</linearGradient>
		<rect x="233.132" y="20.656" fill="url(#SVGID_17_)" width="28.094" height="3.411"/>
		<linearGradient id="SVGID_18_" gradientUnits="userSpaceOnUse" x1="233.7046" y1="18.9502" x2="261.7983" y2="18.9502">
			<stop  offset="0" style="stop-color:#F18633"/>
			<stop  offset="1" style="stop-color:#F2C23F"/>
		</linearGradient>
		<rect x="233.705" y="17.245" fill="url(#SVGID_18_)" width="28.094" height="3.411"/>
		<linearGradient id="SVGID_19_" gradientUnits="userSpaceOnUse" x1="234.1851" y1="15.5391" x2="262.2788" y2="15.5391">
			<stop  offset="0" style="stop-color:#F39147"/>
			<stop  offset="1" style="stop-color:#FECE48"/>
		</linearGradient>
		<rect x="234.185" y="13.834" fill="url(#SVGID_19_)" width="28.094" height="3.411"/>
		<linearGradient id="SVGID_20_" gradientUnits="userSpaceOnUse" x1="233.3052" y1="12.1289" x2="261.3979" y2="12.1289">
			<stop  offset="0" style="stop-color:#F18633"/>
			<stop  offset="1" style="stop-color:#F2C23F"/>
		</linearGradient>
		<rect x="233.305" y="10.424" fill="url(#SVGID_20_)" width="28.093" height="3.41"/>
		<linearGradient id="SVGID_21_" gradientUnits="userSpaceOnUse" x1="232.6802" y1="8.7188" x2="260.7739" y2="8.7188">
			<stop  offset="0" style="stop-color:#F39147"/>
			<stop  offset="1" style="stop-color:#FECE48"/>
		</linearGradient>
		<rect x="232.68" y="7.013" fill="url(#SVGID_21_)" width="28.094" height="3.411"/>
		<linearGradient id="SVGID_22_" gradientUnits="userSpaceOnUse" x1="233.8276" y1="5.3076" x2="261.9204" y2="5.3076">
			<stop  offset="0" style="stop-color:#F18633"/>
			<stop  offset="1" style="stop-color:#F2C23F"/>
		</linearGradient>
		<rect x="233.828" y="3.602" fill="url(#SVGID_22_)" width="28.093" height="3.411"/>
		<linearGradient id="SVGID_23_" gradientUnits="userSpaceOnUse" x1="234.9058" y1="32.4521" x2="262.9985" y2="32.4521">
			<stop  offset="0" style="stop-color:#F18633"/>
			<stop  offset="1" style="stop-color:#F2C23F"/>
		</linearGradient>
		<rect x="234.906" y="30.747" fill="url(#SVGID_23_)" width="28.093" height="3.411"/>
		
			<linearGradient id="SVGID_24_" gradientUnits="userSpaceOnUse" x1="955.7817" y1="-1508.4585" x2="983.9976" y2="-1508.4585" gradientTransform="matrix(0.9754 0.2204 -0.2204 0.9754 -1028.0491 1259.6273)">
			<stop  offset="0" style="stop-color:#F39147"/>
			<stop  offset="1" style="stop-color:#FECE48"/>
		</linearGradient>
		<polygon fill="url(#SVGID_24_)" points="264.448,4.082 236.362,3.409 236.444,0 264.529,0.672 		"/>
	</g>
	<g>
		<linearGradient id="SVGID_25_" gradientUnits="userSpaceOnUse" x1="226.0259" y1="194.0566" x2="257.2876" y2="194.0566">
			<stop  offset="0" style="stop-color:#F18633"/>
			<stop  offset="1" style="stop-color:#F2C23F"/>
		</linearGradient>
		<rect x="226.026" y="192.158" fill="url(#SVGID_25_)" width="31.262" height="3.796"/>
		<linearGradient id="SVGID_26_" gradientUnits="userSpaceOnUse" x1="225.3882" y1="190.2607" x2="256.6499" y2="190.2607">
			<stop  offset="0" style="stop-color:#F39147"/>
			<stop  offset="1" style="stop-color:#FECE48"/>
		</linearGradient>
		<rect x="225.388" y="188.363" fill="url(#SVGID_26_)" width="31.262" height="3.795"/>
		<linearGradient id="SVGID_27_" gradientUnits="userSpaceOnUse" x1="226.0259" y1="186.4668" x2="257.2876" y2="186.4668">
			<stop  offset="0" style="stop-color:#F18633"/>
			<stop  offset="1" style="stop-color:#F2C23F"/>
		</linearGradient>
		<rect x="226.026" y="184.569" fill="url(#SVGID_27_)" width="31.262" height="3.794"/>
		<linearGradient id="SVGID_28_" gradientUnits="userSpaceOnUse" x1="226.5601" y1="182.6719" x2="257.8218" y2="182.6719">
			<stop  offset="0" style="stop-color:#F39147"/>
			<stop  offset="1" style="stop-color:#FECE48"/>
		</linearGradient>
		<rect x="226.56" y="180.773" fill="url(#SVGID_28_)" width="31.262" height="3.796"/>
		<linearGradient id="SVGID_29_" gradientUnits="userSpaceOnUse" x1="225.5806" y1="178.875" x2="256.8413" y2="178.875">
			<stop  offset="0" style="stop-color:#F18633"/>
			<stop  offset="1" style="stop-color:#F2C23F"/>
		</linearGradient>
		<rect x="225.581" y="176.978" fill="url(#SVGID_29_)" width="31.261" height="3.796"/>
		<linearGradient id="SVGID_30_" gradientUnits="userSpaceOnUse" x1="224.8853" y1="175.0801" x2="256.1479" y2="175.0801">
			<stop  offset="0" style="stop-color:#F39147"/>
			<stop  offset="1" style="stop-color:#FECE48"/>
		</linearGradient>
		<rect x="224.885" y="173.182" fill="url(#SVGID_30_)" width="31.263" height="3.796"/>
		<linearGradient id="SVGID_31_" gradientUnits="userSpaceOnUse" x1="226.1626" y1="171.2852" x2="257.4233" y2="171.2852">
			<stop  offset="0" style="stop-color:#F18633"/>
			<stop  offset="1" style="stop-color:#F2C23F"/>
		</linearGradient>
		<rect x="226.163" y="169.388" fill="url(#SVGID_31_)" width="31.261" height="3.794"/>
		
			<linearGradient id="SVGID_32_" gradientUnits="userSpaceOnUse" x1="985.0435" y1="-1345.6436" x2="1016.4399" y2="-1345.6436" gradientTransform="matrix(0.9754 0.2204 -0.2204 0.9754 -1028.0491 1259.6273)">
			<stop  offset="0" style="stop-color:#F39147"/>
			<stop  offset="1" style="stop-color:#FECE48"/>
		</linearGradient>
		<polygon fill="url(#SVGID_32_)" points="260.235,169.922 228.983,169.174 229.074,165.378 260.326,166.126 		"/>
	</g>
	<g>
		<linearGradient id="SVGID_33_" gradientUnits="userSpaceOnUse" x1="128.5278" y1="99.6367" x2="160.2935" y2="99.6367">
			<stop  offset="0" style="stop-color:#F39147"/>
			<stop  offset="1" style="stop-color:#FECE48"/>
		</linearGradient>
		<rect x="128.528" y="97.708" fill="url(#SVGID_33_)" width="31.766" height="3.857"/>
		<linearGradient id="SVGID_34_" gradientUnits="userSpaceOnUse" x1="129.1758" y1="95.7803" x2="160.9419" y2="95.7803">
			<stop  offset="0" style="stop-color:#F18633"/>
			<stop  offset="1" style="stop-color:#F2C23F"/>
		</linearGradient>
		<rect x="129.176" y="93.853" fill="url(#SVGID_34_)" width="31.766" height="3.856"/>
		<linearGradient id="SVGID_35_" gradientUnits="userSpaceOnUse" x1="129.7188" y1="91.9238" x2="161.4849" y2="91.9238">
			<stop  offset="0" style="stop-color:#F39147"/>
			<stop  offset="1" style="stop-color:#FECE48"/>
		</linearGradient>
		<rect x="129.719" y="89.996" fill="url(#SVGID_35_)" width="31.766" height="3.857"/>
		<linearGradient id="SVGID_36_" gradientUnits="userSpaceOnUse" x1="128.7236" y1="88.0674" x2="160.4888" y2="88.0674">
			<stop  offset="0" style="stop-color:#F18633"/>
			<stop  offset="1" style="stop-color:#F2C23F"/>
		</linearGradient>
		<rect x="128.724" y="86.139" fill="url(#SVGID_36_)" width="31.765" height="3.856"/>
		<linearGradient id="SVGID_37_" gradientUnits="userSpaceOnUse" x1="128.0176" y1="84.2109" x2="159.7837" y2="84.2109">
			<stop  offset="0" style="stop-color:#F39147"/>
			<stop  offset="1" style="stop-color:#FECE48"/>
		</linearGradient>
		<rect x="128.018" y="82.283" fill="url(#SVGID_37_)" width="31.766" height="3.856"/>
		<linearGradient id="SVGID_38_" gradientUnits="userSpaceOnUse" x1="129.3145" y1="80.3545" x2="161.0796" y2="80.3545">
			<stop  offset="0" style="stop-color:#F18633"/>
			<stop  offset="1" style="stop-color:#F2C23F"/>
		</linearGradient>
		<rect x="129.314" y="78.426" fill="url(#SVGID_38_)" width="31.765" height="3.856"/>
		
			<linearGradient id="SVGID_39_" gradientUnits="userSpaceOnUse" x1="870.5591" y1="-1413.1162" x2="902.4624" y2="-1413.1162" gradientTransform="matrix(0.9754 0.2204 -0.2204 0.9754 -1028.0491 1259.6273)">
			<stop  offset="0" style="stop-color:#F39147"/>
			<stop  offset="1" style="stop-color:#FECE48"/>
		</linearGradient>
		<polygon fill="url(#SVGID_39_)" points="163.937,78.968 132.181,78.208 132.273,74.353 164.03,75.113 		"/>
	</g>
	<g>
		<g>
			<g>
				<path fill="#EEA987" d="M267.739,169.487c0.579,1.239,8.765,12.458,9.261,13.727c0.497,1.267,3.877,6.613,3.877,6.613
					l2.077-1.459c0,0-5.398-15.245-7.083-17.352l0,0c-0.039-0.048-0.076-0.091-0.11-0.124c-0.211-0.207-0.437-0.425-0.664-0.651
					v-0.002c-1.434-1.429-1.93-2.732-0.86-4.208c1.241-1.707,5.355-11.482,5.548-12.448c0.193-0.964,7.442-14.084-8.048-8.71
					c0,0-2.619,8.188-3.004,14.223C268.345,165.133,267.16,168.247,267.739,169.487z"/>
			</g>
		</g>
		<path fill="#A77961" d="M275.096,170.241c0,0,0.006,4.014,0.172,5.269c0.166,1.252,0.169,3.026,0.169,3.026
			s1.691-5.037,0.434-7.52l0,0c-0.039-0.048-0.076-0.091-0.11-0.124C275.549,170.686,275.324,170.468,275.096,170.241z"/>
		<g>
			<path fill="#EEA886" d="M259.121,121.146c0,0-0.484-1.18-0.663-1.45c-0.179-0.27,0.379-0.854,0.729-0.152
				c0.351,0.702,0.565,1.15,0.565,1.15L259.121,121.146z"/>
		</g>
		<g>
			<path fill="#7E6A9D" d="M259.609,122.258l-1.641-5.089c-0.108-0.336,0.101-0.69,0.446-0.759l2.471-0.487
				c0.31-0.061,0.612,0.133,0.687,0.439l1.248,5.227c0.079,0.331-0.139,0.661-0.475,0.717l-2.077,0.351
				C259.979,122.706,259.7,122.536,259.609,122.258z"/>
		</g>
		<g>
			<path fill="#EEA886" d="M258.939,121.916c0,0-0.209-0.439,0.514-1.178c0.959-0.98,2.303-2.112,2.621-2.064
				c0.458,0.07,0.368,0.432-0.277,0.943s-0.86,0.678-0.86,0.678s1.387-0.665,1.772-0.609c0.385,0.054,0.549,0.443,0.337,0.595
				c-0.211,0.153-0.752,0.395-0.752,0.395s0.617-0.199,0.768,0.022c0.112,0.164,0.229,0.415-0.308,0.734c0,0,0.551,0.29,0.065,0.783
				c-0.485,0.495-0.548,0.796-0.473,1.438c0.074,0.643-0.333,1.657-0.333,1.657l-1.872-0.208c0,0-0.344-1.683-0.587-2.073
				C259.31,122.638,258.939,121.916,258.939,121.916z"/>
		</g>
		<path fill="#323657" d="M259.938,125.311c-0.003,0.473,7.334,9.916,7.917,9.924c0.903,0.013,2.025-1.347,2.882-2.628
			c0,0-0.043-0.212-0.316-2.536s0.724-3.858,0.724-3.858s0.758,3.26,0.471,4.97c0.275-0.483,0.44-0.807,0.44-0.807
			s7.036-7.597,2.519-9.624c0,0-2.318,0.79-3.352,2.614c-1.033,1.822-1.471,3.788-1.825,4.899c0,0-1.074,2.308-1.371,2.1
			c-0.297-0.207-1.737-2.216-2.919-3.155c-1.182-0.941-2.469-3.172-2.469-3.172S259.941,124.775,259.938,125.311z"/>
		<path fill="#AC3435" d="M270.42,130.07c0.273,2.324,0.316,2.536,0.316,2.536c0.347-0.519,0.649-1.026,0.878-1.425l0,0
			c0.287-1.71-0.471-4.97-0.471-4.97S270.147,127.746,270.42,130.07z"/>
		<g>
			<g>
				<path fill="#EEA987" d="M276.904,196.713c0.002,0.641-0.042,0.993,1.778,1.018c1.82,0.023,3.572-2.308,4.795-3.951
					c1.226-1.643,2.817-2.426,1.815-3.537c-0.122-0.137-0.253-0.275-0.387-0.413c-0.949-0.986-2.077-1.955-2.227-2.153
					c-0.168-0.225-1.803,2.151-1.803,2.151s0.138,1.192-0.154,1.889c-0.292,0.693-0.756,3.222-1.618,3.641h-0.001
					C278.241,195.773,276.904,196.572,276.904,196.713z"/>
			</g>
		</g>
		<g>
			<g>
				<path fill="#EEA987" d="M265.957,199.937c1.303-0.024,4.997-0.214,7.048,0.002c2.053,0.216,2.849-0.098,2.704-1.569
					c-0.008-0.081-0.017-0.161-0.027-0.244c-0.185-1.439-0.761-3.249-0.801-3.853c-0.041-0.635-2.638-0.282-2.638-0.282
					s-1.362,2.012-2.11,2.422c-0.748,0.412-3.013,1.248-3.883,1.634c-0.063,0.027-0.133,0.056-0.205,0.079h-0.001
					c-0.917,0.311-2.47,0.354-2.694,0.846C263.108,199.503,264.653,199.961,265.957,199.937z"/>
			</g>
		</g>
		<g>
			<g>
				<path fill="#EEA987" d="M284.093,144.293c0,0,3.689,5.727,2.78,10.937c-0.91,5.21-4.25,10.895-4.83,13.086
					c-0.578,2.191-0.442,4.497-0.445,6.238c-0.007,2.768-1.629,7.979-2.881,10.543c-1.219,2.498-3.95,9.638-3.95,9.638l-2.604-0.371
					c0,0,3.763-17.613,3.804-18.896c0.041-1.281-0.289-5.085,0.083-6.739c0.372-1.653,1.984-12.858,2.521-14.924
					C279.108,151.736,277.257,140.82,284.093,144.293z"/>
			</g>
		</g>
		<path fill="#323657" d="M271.873,143.055c0,0-0.694,2.553-0.944,3.295c-0.25,0.74-2.416,10.132-3.346,17.286
			c0,0,3.314,5.324,15.371,5.128c0,0,4.478-11.038,4.363-14.972c-0.133-4.579-2.429-10.693-3.907-11.827
			C282.092,140.957,271.873,143.055,271.873,143.055z"/>
		<path fill="#1D2033" d="M270.42,130.07c0.273,2.324,0.316,2.536,0.316,2.536c0.347-0.519,0.649-1.026,0.878-1.425l0,0
			c0.287-1.71-0.471-4.97-0.471-4.97S270.147,127.746,270.42,130.07z"/>
		<path fill="#323657" d="M285.039,130.674c-0.809,1.573-1.271,4.136-1.735,4.739c-0.881,1.146-0.622,2.756-0.618,3.271
			c0.011,1.499,1.925,5.173,1.925,5.173c-0.927,0.495-12.951,0.918-12.737-0.803c0.214-1.719-0.096-7.787-0.22-9.062
			c-0.126-1.273,0.042-2.538-0.071-3.096c-0.114-0.558-0.711-1.555-0.764-3.087s1.076-2.859,1.53-3.945
			c0.552-1.316,1.64-3.124,2.488-3.162c0.848-0.041,2.046-0.56,2.046-0.56l4.319-0.021c0,0,3.082,0.157,5.059,1.242
			c1.442,0.791,0.757,6.198,0.757,6.198S285.836,128.998,285.039,130.674z"/>
		<path fill="#EEA886" d="M276.692,116.549c0,0,0.062,0.396,0.113,0.975c0.026,0.298,0.05,0.643,0.061,1.007
			c0.03,1.01-0.035,2.177-0.401,2.905c0,0,1.835,1.193,3.919-1.53c0,0-0.097-3.456,1.106-5.256
			C282.694,112.85,276.692,116.549,276.692,116.549z"/>
		<path fill="#EEA886" d="M281.202,120.123c0,0-0.945,4.876-3.89,4.233c-2.944-0.641-0.593-4.163-0.593-4.163
			S277.908,119.414,281.202,120.123z"/>
		<g>
			<path fill="#EEA886" d="M285.947,133.607c0,0-1.249,0.661-2.023,0.888c-0.6,0.178-1.864,1.042-2.046,1.525
				c-0.182,0.485-0.151,3.177-0.29,3.415c-0.138,0.238,0.333,0.373,0.615,0.031c0,0,0.822,0.75,1.459-0.031
				c0.636-0.78,0.793-1.831,1.151-2.191c0.359-0.361,2.504-2.357,2.504-2.357S286.471,133.041,285.947,133.607z"/>
		</g>
		<path fill="#323657" d="M274.499,112.434c0,0,0.578,5.697-0.475,7.127c0,0,2.786-0.607,3.431-1.566
			C278.1,117.034,274.499,112.434,274.499,112.434z"/>
		<path fill="#EEA886" d="M278.277,106.022c0,0-3.406-0.089-4.033,3.945c-0.627,4.031,0.822,7.576,1.391,8.144
			c0.567,0.568,3.974,0.138,4.776-1.957c0.802-2.096,1.978-3.623,1.801-5.425C282.036,108.93,282.465,105.954,278.277,106.022z"/>
		<path fill="#323657" d="M274.099,111.494c0,0-0.912-5.03,3.609-5.932c4.522-0.901,6.108,2.193,6.539,4.034
			c0.431,1.839-0.079,7.026-0.079,7.026s-3.015,2.644-4.815,3.328c0,0,1.507-5.52,0.939-9.475c0,0-3.674,0.576-6.114-0.025
			C274.178,110.451,274.105,111.278,274.099,111.494z"/>
		<path fill="#A77961" d="M276.794,118.332c0,0,1.183-0.007,2.792-1.052c0,0-1.133,1.421-2.71,1.942
			C276.876,119.223,276.782,118.516,276.794,118.332z"/>
		<path fill="#323657" d="M265.957,199.937c1.303-0.024,4.997-0.214,7.048,0.002c2.053,0.216,2.849-0.098,2.704-1.569
			c-0.008-0.081-0.017-0.161-0.027-0.244c-0.495-0.343-4.054-0.137-6.156,0.137c-2.104,0.273-3.48-0.137-3.48-0.137h-0.001
			c-0.917,0.311-2.47,0.354-2.694,0.846C263.108,199.503,264.653,199.961,265.957,199.937z"/>
		<path fill="#323657" d="M276.847,196.69c0.001,0.64,0.015,1.016,1.835,1.04c1.82,0.023,3.572-2.308,4.795-3.951
			c1.226-1.643,2.817-2.426,1.815-3.537c-0.122-0.137-0.253-0.275-0.387-0.413c-0.056,0.048-2.409,2.176-3.16,3.659
			c-1.247,2.466-2.583,1.856-2.642,1.868h-0.001C278.241,195.773,276.847,196.549,276.847,196.69z"/>
		<path fill="#323657" d="M281.608,122.136c0.297-0.757,2.7-1.903,4.746-0.722c2.047,1.183,3.617,2.479,4.815,2.998
			c1.198,0.519,5.411,3.705,5.854,4.458c0.389,0.667,0.667,1.095-1.055,2.193c-1.759,1.122-8.662,4.285-8.662,4.285l-1.544-1.857
			c0,0,1.85-1.18,3.218-2.061c1.363-0.875,0.847-0.614,2.399-1.466c0,0-2.585-1.569-3.565-1.909
			C286.833,127.715,280.269,125.545,281.608,122.136z"/>
	</g>
	<g>
		<g>
			<path fill="#223B6F" d="M46.342,109.514c0,0,0.228,1.856,0.529,2.677c0.302,0.817,1.94,2.71,1.248,4.524
				c-0.75,1.97-4.025,0.072-5.362-0.529c-1.336-0.601-1.032-1.691-1.174-3.026s-0.795-1.371-0.554-2.312
				c0.24-0.938,1.702-2.735,1.702-2.735L46.342,109.514z"/>
		</g>
		<g>
			<g>
				<path fill="#EEA886" d="M43.362,107.141c0,0-0.838,1.173-0.815,1.206c0.023,0.031,3.592,2.204,3.84,1.499
					c0.197-0.56,0.281-1.372,0.281-1.372L43.362,107.141z"/>
			</g>
		</g>
		<g>
			<path fill="#223B6F" d="M31.264,110.826c0,0-1.088,0.954-2.066,2.42c-0.978,1.468-3.573,1.545-3.684,3.549
				c-0.111,2.001,3.529,2.062,5.439,1.41s2.2-2.606,3.355-3.096c1.156-0.488,1.756-0.885,1.667-1.839
				c-0.089-0.955-0.728-2.504-0.728-2.504s-0.718,0.229-1.141,0.275C33.684,111.09,32.264,111.104,31.264,110.826z"/>
		</g>
		<g>
			<path fill="#FDCA58" d="M44.362,56.588c0,0-0.732,4.355-1.323,7.232l0,0c-0.239,1.167-0.455,2.09-0.589,2.381
				c-0.169,0.366-1.544,1.842-3.226,3.574c-2.953,3.04-6.853,6.867-6.853,6.867l-1.525-2.895c0,0,3.464-4.061,5.813-6.771
				c1.087-1.254,1.935-2.219,2.09-2.358c0.491-0.439,1.061-4.768,1.862-8.334s2.407-5.537,2.407-5.537L44.362,56.588z"/>
		</g>
		<g>
			<path fill="#EEA886" d="M39.225,69.775c-2.953,3.04-6.853,6.867-6.853,6.867l-1.525-2.895c0,0,3.464-4.061,5.813-6.771
				C37.38,67.329,38.701,68.171,39.225,69.775z"/>
		</g>
		<g>
			<path fill="#EEA886" d="M31.435,109.493l-0.171,1.333c0,0,1.895,0.67,3.983-0.06l0.042-1.185L31.435,109.493z"/>
		</g>
		<g>
			<path fill="#FDCA58" d="M58.334,76.053c0.109,0.388-20.07,0-20.07,0s5.582-4.062,5.943-5.148
				c0.362-1.085-1.421-7.597-1.654-9.717c-0.186-1.695-0.652-9.281,0.465-10.44c1.168-1.211,5.375-2.48,5.375-2.48l6.134,0.228
				c0,0,1.012,0.211,1.735,0.548c0.724,0.336,4.862,1.81,5.534,3.877c0.672,2.067-4.129,8.714-4.129,8.714s-0.009,0.299-0.024,0.789
				l0,0c-0.019,0.653-0.046,1.645-0.071,2.721c-0.033,1.394-0.06,2.928-0.06,4.049C57.513,71.828,58.225,75.665,58.334,76.053z"/>
		</g>
		<g>
			<path fill="#E9E8E8" d="M58.334,76.053c0,0,2.745,4.031,2.783,6.784c0.039,2.752-4.87,11.97-5.613,13.289
				c-2.234,3.963-8.359,12.514-8.359,12.514s-1.056-0.025-4.351-1.305c0,0,4.075-11.295,4.591-12.469
				c2.19-4.973,3.414-8.5,2.677-9.353c-0.737-0.853-2.745-1.708-3.326-2.212c-0.582-0.503-10.71,1.914-11.772,2.189
				c-2.748,0.713-1.495,5.495-0.887,7.638c1.018,3.587,1.906,16.539,1.906,16.539s-1.958,0.835-5.236,0.13
				c0,0-6.438-23.388-6.646-25.714c-0.207-2.326-0.308-6.16,15.559-9.076L58.334,76.053z"/>
		</g>
		<g>
			<path fill="#EEA886" d="M50.077,34.941c0,0-5.324-1.201-4.108,5.499c1.216,6.7,2.496,7.227,5.708,5.84s2.924-5.679,3.086-7.784
				S51.775,35.014,50.077,34.941z"/>
		</g>
		<g>
			<path fill="#EEA886" d="M48.668,49.986c0,0,2.357,2.5,6.084,0.228c0,0-0.833-5.417-0.395-8.056s-4.862,4.088-4.862,4.088
				c0.07,0.037,0.116,0.289,0.126,0.646c0.009,0.304-0.006,0.684-0.055,1.074C49.457,48.844,49.185,49.771,48.668,49.986z"/>
		</g>
		<g>
			<path fill="#3A3F47" d="M54.504,41.934c0,0-0.138-2.111-0.909-2.177c-0.771-0.066-0.89,0.784-0.89,0.784l-0.778,0.147
				c0,0,0.246-1.851-0.524-2.173c-0.77-0.324-4.989,1.018-5.607,0.475c-0.618-0.543-0.327-4.296,0.791-4.81
				c1.117-0.514,4.205-1.665,6.466-0.134c0,0,1.763-0.201,2.024,1.222C55.34,36.691,54.983,40.876,54.504,41.934z"/>
		</g>
		<g>
			<path fill="#A77961" d="M49.567,47.967c3.844-1.185,4.133-3.5,4.138-3.536c-1.266,2.175-4.083,2.462-4.083,2.462
				C49.631,47.197,49.616,47.577,49.567,47.967z"/>
		</g>
		<g>
			<path fill="#EEA886" d="M56.326,49.071c0,0-2.815,5.604-7.364,5.243c-4.548-0.362-0.774-5.995-0.568-6.047
				C48.622,48.209,53.059,47.104,56.326,49.071z"/>
		</g>
		<g>
			<path fill="#FDCA58" d="M35.956,75.769c0,0,13.935,1.718,22.378,0.284l-16.133-2.015C42.201,74.038,42.106,74.449,35.956,75.769z
				"/>
		</g>
		<g>
			<path fill="#EEA886" d="M46.378,73.403l-1.039,0.526c0,0,0.236,1.649,0.805,2.149l1.165-0.297
				C47.31,75.78,47.067,73.971,46.378,73.403z"/>
		</g>
		<g>
			<path fill="#FDCA58" d="M62.503,70.026c-0.207,0.24-2.947,1.342-6.042,2.534h-0.001c-4.228,1.629-8.997,3.17-8.997,3.17
				l-1.085-2.328c0,0,4.995-2.714,8.37-4.617c1.594-0.899,2.826-1.617,3.001-1.783c0.542-0.517,0.683-1.346,0.284-2.791
				s-1.318-8.089-1.421-8.864c-0.104-0.775,0.258-2.842,2.197-2.946s2.924,0.443,2.924,0.443s0.486,0.203,0.848,4.906
				C62.943,62.454,62.995,69.458,62.503,70.026z"/>
		</g>
		<g>
			<path fill="#C9A144" d="M57.644,62.422L57.644,62.422c-0.019,0.653-0.046,1.645-0.071,2.721c-1.892-4.637-0.799-8.337-0.78-8.399
				C56.587,58.002,57.629,62.36,57.644,62.422z"/>
		</g>
		<g>
			<path fill="#C9A144" d="M43.04,63.82L43.04,63.82c-0.239,1.167-0.455,2.09-0.589,2.381c-0.646-3.127-0.065-7.13-0.065-7.13
				C42.474,60.983,43.04,63.82,43.04,63.82z"/>
		</g>
		<g>
			<path fill="#EEA886" d="M56.462,72.561L56.462,72.561c-4.229,1.629-9.152,3.22-9.152,3.22l-0.931-2.377
				c0,0,4.995-2.714,8.37-4.617C54.748,68.786,55.976,69.384,56.462,72.561z"/>
		</g>
		<g>
			<polygon fill="#444D95" points="46.078,75.918 26.27,75.626 36.271,80.705 			"/>
		</g>
		<g>
			<polygon fill="#303669" points="36.271,80.705 46.078,76.906 46.078,75.918 35.496,79.735 			"/>
		</g>
		<g>
			<g>
				<path fill="#EEA886" d="M45.564,73.965c0,0-1.237-0.193-2.092-0.392c-0.662-0.154-2.307,0.058-2.726,0.482
					c-0.419,0.425-1.752,3.384-2.004,3.564c-0.252,0.181,0.129,0.599,0.571,0.389c0,0,0.407,1.295,1.41,0.81
					c1.003-0.484,1.685-1.543,2.21-1.729c0.525-0.186,3.584-1.126,3.584-1.126S46.353,73.649,45.564,73.965z"/>
			</g>
		</g>
		<g>
			<g>
				<path fill="#EEA886" d="M41.047,73.862c0,0-0.794,0.384-1.002,0.555c-0.208,0.171-1.048,0.801-1.251,0.949
					c-0.204,0.148,0.307,0.569,1.81-0.082C42.107,74.633,41.047,73.862,41.047,73.862z"/>
			</g>
		</g>
		<g>
			<polygon fill="#303669" points="36.271,80.705 30.378,64.618 11.385,64.928 17,79.752 			"/>
		</g>
		<g>
			
				<ellipse transform="matrix(0.8944 -0.4473 0.4473 0.8944 -29.9969 17.8804)" fill="#5C80C0" cx="22.861" cy="72.455" rx="1.611" ry="2.345"/>
		</g>
		<g>
			<path fill="#EEA886" d="M52.723,39.646c0.07-0.591,1.239-0.808,1.332,0.079c0.094,0.887-0.531,2.442-0.974,2.289
				C52.638,41.861,52.626,40.462,52.723,39.646z"/>
		</g>
	</g>
	<g>
		<g>
			<path fill="#EEA886" d="M40.319,182.801c0,0-0.284,1.487-0.789,1.883c-0.505,0.393-1.787,0.458-3.405,0.358
				c-1.504-0.095-5.107-0.01-5.172-0.205c-0.064-0.194,0.353-1.01,3.14-1.612c2.786-0.602,3.673-0.605,4.095-1.436
				C38.61,180.958,40.319,182.801,40.319,182.801z"/>
		</g>
		<g>
			<path fill="#E55453" d="M64.019,149.935c0,0,4.002,1.285,5.258,1.702c1.254,0.42,3.262,2.102,5.019,4.691
				c1.819,2.683,5.234,8.371,5.354,8.49c0.119,0.12,2.001,2.842-3.937,4.498c-2.288,0.639-10.274,1.779-10.274,1.779
				s-0.066-2.133-0.395-2.372c0,0,6.146-1.764,7.274-2.323c1.279-0.635,2.818-1.017,2.191-1.584
				c-0.628-0.566-3.978-4.665-3.978-4.665s-0.329,2.778-0.807,3.794c-0.479,1.018-0.866,3.676-0.836,4.601
				c0.029,0.927,0.424,4.348,0.424,4.348s-2.071,0.611-3.415,0.545c-1.345-0.066-12.858,0.604-12.813,0.098
				c0.188-2.146,0.367-2.771,0.568-3.376c0.201-0.604,0.239-1.494-0.239-3.437c-0.478-1.941-2.18-5.675-2.18-5.675
				s-2.274,5.573-2.524,6.242c-0.445,1.185-1.533,2.619-2.421,4.161c-0.795,1.377-6.081,12.147-6.081,12.147s-2.62-1.52-2.142-1.877
				c0.479-0.358,4.737-11.69,5.949-14.187c1.271-2.619,2.601-8.147,2.798-8.817c0.34-1.166,2.658-5.229,3.973-5.887
				c1.314-0.657,8.007-2.897,8.007-2.897H64.019z"/>
		</g>
		<g>
			<path fill="#FFFFFF" d="M60.939,155.003l-2.546-4.961l0.028-0.009c0.034-0.012,3.506-1.144,5.656-0.105l0.025,0.013
				L60.939,155.003z M58.463,150.071l2.479,4.832l3.087-4.942C61.998,149.001,58.794,149.967,58.463,150.071z"/>
		</g>
		<g>
			<g>
				<path fill="#EEA886" d="M62.027,136.785c0,0,4.088,0.644,3.466,7.041c-0.623,6.396-4.231,5.871-4.473,5.865
					c-0.242-0.006-3.623,0.116-3.886-7.693C57.135,141.998,57.02,136.222,62.027,136.785z"/>
			</g>
		</g>
		<g>
			<g>
				<path fill="#EEA886" d="M63.936,146.588c0,0-0.124,2.776,0.13,3.347c0.255,0.569-3.424,2.16-5.637,0.122
					c0,0,0.597-2.768,0.449-3.781C58.728,145.263,63.936,146.588,63.936,146.588z"/>
			</g>
		</g>
		<g>
			<g>
				<path fill="#EEA886" d="M65.556,142.019c0,0,0.448-0.479,0.612,0.006c0.164,0.483-0.61,2.644-0.639,2.745
					c0,0-0.081,0.187-0.188,0.083C65.233,144.749,65.556,142.019,65.556,142.019z"/>
			</g>
		</g>
		<g>
			<g>
				<path fill="#EEA886" d="M57.245,141.938c0,0-0.438-0.487-0.612-0.006c-0.173,0.48,0.553,2.653,0.585,2.757
					c0,0,0.078,0.188,0.187,0.088C57.515,144.675,57.245,141.938,57.245,141.938z"/>
			</g>
		</g>
		<g>
			<g>
				<path fill="#444444" d="M65.554,142.999l-0.585,0.782c0,0,0.017-1.715-0.078-1.984c-0.094-0.268-0.237-1.091-0.315-1.285
					c-0.079-0.193-3.329,0.994-6.544,0.281c0,0,0.134,1.235-0.157,1.344c-0.291,0.111-0.148,2.011-0.148,2.011l-0.482-0.545
					c0,0-0.736-4.922-0.555-5.434c0.182-0.513,0.762-3.598,6.982-1.767c0,0,1.939-0.411,2.328,0.929
					C66.391,138.67,65.554,142.999,65.554,142.999z"/>
			</g>
		</g>
		<g>
			<path fill="#304664" d="M90.037,177.973c-0.134,0.939-5.788,4.899-6.901,5.689c-0.894,0.636-1.67,0.927-3.021,1.435
				c0,0,0,0-0.001,0c-3.069,0.807-22.328,6.554-22.328,6.554c-0.051-0.195-0.078-0.365-0.192-0.585
				c-0.718,0.288-1.458,0.473-1.928,0.62c-0.717,0.224-6.408,0.402-7.574,0.626c-1.165,0.226-3.495,0.584-4.437-0.312
				c-0.94-0.897,0.583-2.825,1.882-3.317c1.299-0.493,6.05-0.628,6.901-0.717c0.852-0.091,1.972-0.404,2.51-0.224
				c0.17,0.056,0.921-0.164,1.869-0.492c-0.023-0.35-0.029-0.569-0.029-0.569l5.057-1.458l-0.936-8.952c0,0,2.2-8.291,10.989-1.966
				c0,0,1.961,0.575,2.633,0.755c0.047,0.013,0.124,0.015,0.226,0.005c1.34-0.1,7.102-1.842,9.186-1.842
				c2.24,0,2.958-0.135,3.764,0.268C88.513,173.895,90.171,177.031,90.037,177.973z"/>
		</g>
		<g>
			<path fill="#304664" d="M81.032,192c-0.94,0.896-3.271,0.537-4.437,0.312c-1.165-0.224-6.856-0.402-7.573-0.626
				c-0.717-0.225-2.062-0.539-3.003-1.166c-0.076-0.05-0.248-0.126-0.503-0.22c0,0,0,0-0.001,0l-1.422,1.026l-19.788-6.298
				c-1.186-0.326-2.127-0.819-2.753-1.366c-1.03-0.895-6.767-4.75-6.901-5.689c-0.134-0.941,1.524-4.078,2.331-4.482
				c0.807-0.402,1.523-0.268,3.764-0.268c2.24,0,8.738,2.016,9.41,1.837c0.305-0.081,0.938-0.404,1.539-0.731
				c0.718-0.393,1.389-0.792,1.389-0.792c9.624-4.296,10.696,2.734,10.696,2.734l-0.569,8.677c0,0,0.802,0.398,1.845,0.894
				l4.771,1.35l-0.625,0.45c0.27,0.087,0.46,0.126,0.538,0.102c0.538-0.181,1.659,0.133,2.51,0.224
				c0.851,0.089,5.602,0.224,6.901,0.717C80.449,189.175,81.973,191.103,81.032,192z"/>
		</g>
		<g>
			<path fill="#24344A" d="M56.012,182.686c0,0-6.259-3.749-8.993-4.34c-2.583-0.558-3.525-1.523-3.525-1.523s4.108,0,6.842,1.942
				C52.192,180.083,56.012,182.686,56.012,182.686z"/>
		</g>
		<g>
			<path fill="#24344A" d="M61.571,185.302c0,0,10.887-5.716,15.332-6.956c2.545-0.709,3.525-1.523,3.525-1.523
				s-6.73,0.657-10.823,3.122C67.654,181.118,61.571,185.302,61.571,185.302z"/>
		</g>
		<g>
			<path fill="#343434" d="M53.083,173.536c0,0-0.148-1.122,0.195-1.756c0,0,7.862,0.634,15.874-0.328c0,0,0.441,0.749,0.226,1.333
				C69.378,172.785,64.257,174.193,53.083,173.536z"/>
		</g>
		<g>
			<path fill="#EEA886" d="M65.414,150.384l-2.958,4.737c-0.487,1.17-2.162,1.126-2.585-0.07l-2.736-4.555
				c0,0,1.253-0.496,2.055-0.699C62.397,148.986,65.414,150.384,65.414,150.384z"/>
		</g>
		<g>
			<path fill="#DBDFEF" d="M81.032,192c-0.94,0.896-3.271,0.537-4.437,0.312c-1.165-0.224-6.856-0.402-7.573-0.626
				c-0.717-0.225-2.062-0.539-3.003-1.166c-0.076-0.05-0.248-0.126-0.503-0.22l3.684-2.659c0.27,0.087,0.46,0.126,0.538,0.102
				c0.538-0.181,1.659,0.133,2.51,0.224c0.851,0.089,5.602,0.224,6.901,0.717C80.449,189.175,81.973,191.103,81.032,192z"/>
		</g>
		<g>
			<path fill="#DBDFEF" d="M57.594,191.065c-0.718,0.288-1.458,0.473-1.928,0.62c-0.717,0.224-6.408,0.402-7.574,0.626
				c-1.165,0.226-3.495,0.584-4.437-0.312c-0.94-0.897,0.583-2.825,1.882-3.317c1.299-0.493,6.05-0.628,6.901-0.717
				c0.852-0.091,1.972-0.404,2.51-0.224c0.17,0.056,0.921-0.164,1.869-0.492C56.846,187.818,57.594,191.065,57.594,191.065z"/>
		</g>
		<g>
			<path fill="#304664" d="M61.571,190.524l10.702-3.168l-2.116-0.646C70.158,186.711,61.604,189.811,61.571,190.524z"/>
		</g>
		<g>
			<polygon fill="#24344A" points="61.571,190.524 66.58,188.996 63.107,191.012 			"/>
		</g>
		<g>
			<polygon fill="#304664" points="66.24,171.736 66.835,171.688 67.005,173.446 66.355,173.536 			"/>
		</g>
		<g>
			<polygon fill="#304664" points="56.313,171.934 56.116,173.924 56.713,173.924 56.924,171.952 			"/>
		</g>
		<g>
			<path fill="#9E9E9E" d="M59.834,171.879l-0.088,1.96c0,0,1.951,0.24,2.656-0.118l-0.079-1.877L59.834,171.879z"/>
		</g>
		<g>
			<path fill="#283B54" d="M51.694,174.328c0.664,0.046,5.148,2.644,6.212,3.266c-1.617-0.845-7.751-2.534-7.751-2.534
				C50.461,174.979,51.094,174.655,51.694,174.328z"/>
		</g>
		<g>
			<path fill="#535353" d="M58.132,177.726c-0.01-0.006-0.09-0.054-0.225-0.132C57.996,177.641,58.072,177.685,58.132,177.726z"/>
		</g>
		<g>
			<path fill="#283B54" d="M74.757,175.066c0,0-7.726,1.874-9.14,2.659c0.064-0.047,4.177-3.015,6.281-3.421
				c0,0,1.961,0.575,2.633,0.755c0.047,0.013,0.124,0.015,0.226,0.005V175.066z"/>
		</g>
		<g>
			<path fill="#A77961" d="M58.869,148.524c0,0,0.922,1.18,2.379,1.18c0.958,0,1.714-0.334,2.667-1.265c0,0-0.482,1.833-2.661,1.998
				C61.254,150.438,59.589,150.541,58.869,148.524z"/>
		</g>
		<g>
			<g>
				<path fill="#EEA886" d="M64.408,168.057c0,0-0.512-2.073-0.441-2.438c0.071-0.365-0.778-0.742-0.843,0.159
					c-0.064,0.898-0.094,1.471-0.094,1.471L64.408,168.057z"/>
			</g>
		</g>
		<g>
			<path fill="#535353" d="M62.869,169.46h-2.722c-0.348,0-0.635-0.273-0.653-0.622l-0.316-5.943
				c-0.02-0.374,0.275-0.687,0.649-0.689l3.257-0.026c0.373-0.004,0.673,0.307,0.659,0.678l-0.219,5.972
				C63.511,169.182,63.222,169.46,62.869,169.46z"/>
		</g>
		<g>
			<g>
				<path fill="#EEA886" d="M64.431,168.189c0,0,0.027-0.559-1.063-1.026c-1.45-0.62-3.376-1.233-3.692-1.041
					c-0.456,0.275-0.201,0.62,0.709,0.881c0.911,0.259,1.212,0.342,1.212,0.342s-1.766-0.097-2.152,0.131
					c-0.385,0.227-0.388,0.712-0.096,0.78c0.292,0.068,0.973,0.089,0.973,0.089s-0.745,0.06-0.807,0.362
					c-0.046,0.223-0.06,0.541,0.651,0.645c0,0-0.458,0.55,0.274,0.861c0.733,0.311,2.045,0.569,2.702,0.65
					c1.366,0.166,3.942-0.281,3.942-0.281l-0.862-1.922c0,0-0.732,0.219-1.227,0.024C64.354,168.434,64.431,168.189,64.431,168.189z
					"/>
			</g>
		</g>
		<g>
			<path fill="#E55453" d="M65.043,168.724c0,0-0.058,1.449,0.395,2.372l7.208-1.143l-1.269-2.869L65.043,168.724z"/>
		</g>
	</g>
	<g>
		<path fill="#6A75B7" d="M277.042,39.527c0,0,1.52-2.79,2.384-3.793c0.864-1.004,3.737-1.757,3.347-3.04s-4.239-0.725-5.299,0.53
			c-1.06,1.255-4.294,1.701-4.405,2.231c-0.112,0.53,1.123,3.43,1.816,3.904C275.579,39.833,277.042,39.527,277.042,39.527z"/>
		<path fill="#555E95" d="M283.502,41.89c0,0,2.476-1.963,3.667-2.541c1.191-0.578,4.127-0.128,4.277-1.461
			c0.151-1.332-3.602-2.349-5.072-1.618s-4.617-0.144-4.93,0.298c-0.313,0.442-0.331,3.594,0.117,4.304
			C282.009,41.583,283.502,41.89,283.502,41.89z"/>
		<path fill="#EEA886" d="M278.004,47c0,0-1.08-7.391-1.032-8.673c0.015-0.366-2.224-0.23-2.119,0.474
			c0.228,1.533-0.805,7.474-0.625,8.561C274.407,48.45,278.096,47.685,278.004,47z"/>
		<path fill="#EEA886" d="M281.39,49.124c0,0,2.025-7.176,2.497-8.369c0.21-0.531-1.854-1.354-2.134-0.407
			c-0.438,1.486-3.706,6.539-3.974,7.608C277.513,49.026,281.203,49.789,281.39,49.124z"/>
		<path fill="#323657" d="M279.984,54.11c0,0,2.175-7.334,2.51-8.115l-3.43-2.119c0,0-1.59,4.685-1.812,5.856
			C277.029,50.904,279.984,54.11,279.984,54.11z"/>
		<path fill="#2F334D" d="M219.27,34.733c0,0,3.312,0.838,4.889,3.343s2.938,5.389,5.898,6.698c2.962,1.309,2.981,4.681,2.75,5.201
			c-0.23,0.52-9.327,10.746-11.312,11.141c-1.984,0.395-5.7,0.12-5.304-2.507c0.398-2.627,4.293-8.28,2.106-11.131
			c-2.186-2.852-2.736-5.478-2.736-5.478L219.27,34.733z"/>
		<path fill="#EEA886" d="M219.848,46.962c0,0,0.097-0.032,0.26-0.046c0.188-0.018,0.462-0.013,0.774,0.093
			c0.077,0.026,0.181,0.079,0.303,0.15c0.787,0.464,2.649,1.723,2.901,1.753c0.29,0.035,0.045-4.311,0.045-4.311
			s-0.991-1.754-1.116-2.909C222.891,40.538,219.848,46.962,219.848,46.962z"/>
		<path fill="#323657" d="M243.148,51.503c0,0,3.639-2.551,7.905-1.756s4.727,2.789,6.19,2.879s6.357-0.328,10.373,0.843
			c4.016,1.171,7.404,1.296,7.864,0.962s-2.511-7.027-2.511-7.947l4.979-1.297c0,0,1.422,5.939,1.98,7.278
			c0.596,1.432,1.742,4.127,0.11,6.47c-1.631,2.342-6.19,1.287-8.951,1.758c-2.76,0.472-15.117,0.169-17.274,0.054
			c-2.343-0.125-9.412-0.46-9.412-0.46L243.148,51.503z"/>
		<path fill="#EEA886" d="M213.259,38.279c0,0-0.232,3.595,0.566,4.673c0.319,0.431,0.536,0.666,0.681,0.792
			c0.205,0.178,0.364,0.403,0.455,0.659c0.247,0.691,0.398,1.665,0.595,1.873c0.214,0.227,0.835-0.35,1.06-0.352
			c0.226,0,2.415,1.889,2.939,1.502c0.523-0.387,3.718-3.628,3.449-5.851c-0.269-2.223-1.249-5.541-4.847-5.521
			C214.561,36.075,213.535,37.385,213.259,38.279z"/>
		<path fill="#FDCA58" d="M224.129,55.435c0.069,0.147,1.393,2.26,2.841,3.485c0.602,0.509,1.225,0.865,1.789,0.865
			c0.171,0,0.339,0.002,0.503,0.007c1.663,0.045,2.939,0.299,5.185,0.412c2.333,0.116,7.989-0.209,8.157-0.209
			c0.167,0,1.798,0.293,1.798,0.293c0.586-0.711-0.961-8.742-1.254-8.784c-0.293-0.042-2.176,0.669-3.974,0.377
			c-1.8-0.293-2.51-0.46-5.188-3.597c-2.677-3.137-5.354-3.932-6.483-3.681c-1.129,0.251-3.374,0-3.374,0
			S224.032,55.226,224.129,55.435z"/>
		<rect x="197.471" y="62.462" fill="#EBE2D8" width="13.887" height="1.506"/>
		<polygon fill="#EBE2D8" points="194.105,49.306 198.898,63.49 197.465,63.96 192.677,49.784 		"/>
		<path fill="#2F334D" d="M214.77,40.853c0,0-0.67,1.737-1.025,1.977c0,0-1.293-1.368-0.462-4.744
			c0.83-3.376,3.965-3.694,5.987-3.352c2.52,0.427,5.056,8.949,4.924,9.779c-0.131,0.83-2.952-4.404-5.425-3.983
			C216.296,40.951,216.277,41.088,214.77,40.853z"/>
		<path fill="#A77961" d="M220.108,46.916c0.188-0.018,0.462-0.013,0.774,0.093c0.077,0.026,0.181,0.079,0.303,0.15
			c0.579-0.902,1.114-3.041,1.132-3.113C221.931,45.217,220.108,46.916,220.108,46.916z"/>
		<path fill="#C49529" d="M226.97,58.92c0.602,0.509,1.225,0.865,1.789,0.865c0.171,0,0.339,0.002,0.503,0.007l-0.821-6.657
			L226.97,58.92z"/>
		<path fill="#EEA886" d="M223.967,52.476c0,0-0.207,5.245-0.312,6.125c-0.104,0.876,0.011,1.394-0.937,1.478
			c-0.938,0.083-7.512,0.836-9.52,1.171s-2.764-0.451-3.127-0.564c-0.362-0.113-2.638-0.183-3.314,0.042
			c-0.712,0.236-1.632,0.795-2.218,0.879c-0.585,0.083-1.394,0.411-1.338,0.69s1.353,0.237,1.742,0.237
			c0.391,0,6.63-0.167,6.938-0.015c0.39,0.195,5.431,0.447,6.351,0.447s8.226,0.572,8.867-0.321s1.464-10.095,1.381-10.513
			C228.396,51.712,224.421,51.498,223.967,52.476z"/>
		<path fill="#FDCA58" d="M223.641,52.59c0,0-0.25-6.988,2.022-6.901c2.873,0.109,3.304,3.625,2.913,7.446
			C228.577,53.135,224.283,53.176,223.641,52.59z"/>
	</g>
</g>
</svg>
