<?xml version="1.0" encoding="utf-8"?>
<!-- Generator: Adobe Illustrator 16.0.0, SVG Export Plug-In . SVG Version: 6.00 Build 0)  -->
<!DOCTYPE svg PUBLIC "-//W3C//DTD SVG 1.1//EN" "http://www.w3.org/Graphics/SVG/1.1/DTD/svg11.dtd">
<svg version="1.1" id="Layer_1" xmlns="http://www.w3.org/2000/svg" xmlns:xlink="http://www.w3.org/1999/xlink" x="0px" y="0px"
	 width="289.93px" height="200px" viewBox="0 0 289.93 200" enable-background="new 0 0 289.93 200" xml:space="preserve">
<g>
	<linearGradient id="SVGID_1_" gradientUnits="userSpaceOnUse" x1="203.6411" y1="84.043" x2="119.3573" y2="84.043">
		<stop  offset="0" style="stop-color:#F59D5A"/>
		<stop  offset="1" style="stop-color:#FFD257"/>
	</linearGradient>
	<path fill="url(#SVGID_1_)" d="M232.825,105.235H113.227c-4.317,0-7.817-3.5-7.817-7.816V70.667c0-4.316,3.5-7.816,7.817-7.816
		h119.598V105.235z"/>
	<linearGradient id="SVGID_2_" gradientUnits="userSpaceOnUse" x1="243.2339" y1="154.2339" x2="159.7673" y2="154.2339">
		<stop  offset="0" style="stop-color:#F59D5A"/>
		<stop  offset="1" style="stop-color:#FFD257"/>
	</linearGradient>
	<path fill="url(#SVGID_2_)" d="M270.555,168.738H124.804c-3.103,0-5.616-2.516-5.616-5.619v-17.771
		c0-3.104,2.514-5.619,5.616-5.619h145.751V168.738z"/>
	<path fill="#F18634" d="M286.083,142.901v22.665h3.848v3.169h-68.384c-2.139,0-3.88-1.736-3.88-3.881v-21.241
		c0-2.145,1.741-3.882,3.88-3.882h68.384v3.17H286.083z"/>
	<path fill="#FBE6DE" d="M286.081,165.566h-61.218c-2.061,0-3.73-1.671-3.73-3.73v-15.204c0-2.06,1.67-3.73,3.73-3.73h61.218
		V165.566z"/>
	<path fill="#F18634" d="M253.219,67.214v33.661h2.083v4.362h-86.661c-4.462,0-8.079-3.616-8.079-8.078V70.931
		c0-4.461,3.617-8.079,8.079-8.079h86.661v4.362H253.219z"/>
	<path fill="#FBE6DE" d="M253.217,100.873h-80.142c-4.462,0-8.079-3.618-8.079-8.08V75.292c0-4.462,3.617-8.079,8.079-8.079h80.142
		V100.873z"/>
	<linearGradient id="SVGID_3_" gradientUnits="userSpaceOnUse" x1="58.0146" y1="122.4829" x2="217.2153" y2="122.4829">
		<stop  offset="0" style="stop-color:#699BD3"/>
		<stop  offset="1" style="stop-color:#584294"/>
	</linearGradient>
	<path fill="url(#SVGID_3_)" d="M206.995,139.729H89.566c-5.516,0-9.986-4.47-9.986-9.985v-14.52c0-5.515,4.471-9.987,9.986-9.987
		h117.428V139.729z"/>
	<path fill="#4A5EA3" d="M227.388,108.789v27.394h2.083v3.549h-84.752c-5.516,0-9.986-4.472-9.986-9.985v-14.521
		c0-5.515,4.471-9.987,9.986-9.987h84.752v3.552H227.388z"/>
	<path fill="#FBE6DE" d="M227.386,136.179h-78.504c-5.516,0-9.988-4.47-9.988-9.985v-7.42c0-5.516,4.472-9.987,9.988-9.987h78.504
		V136.179z"/>
	<g>
		<rect x="55.998" y="139.962" fill="#EBD8D1" width="53.214" height="14.389"/>
		<rect x="29.39" y="154.346" fill="#EBD8D1" width="53.214" height="14.392"/>
	</g>
	<rect x="179.912" y="117.522" fill="#DECCC6" width="33.627" height="0.865"/>
	<rect x="164.148" y="120.155" fill="#DECCC6" width="35.908" height="0.864"/>
	<rect x="246.371" y="148.764" fill="#DECCC6" width="33.627" height="0.865"/>
	<rect x="230.606" y="151.397" fill="#DECCC6" width="35.908" height="0.867"/>
	<rect x="227.014" y="153.799" fill="#DECCC6" width="14.855" height="0.867"/>
	<rect x="177.995" y="89.974" fill="#DECCC6" width="35.909" height="0.866"/>
	<rect x="208.775" y="71.159" fill="#DECCC6" width="35.907" height="0.866"/>
	<rect x="202.004" y="92.377" fill="#DECCC6" width="14.855" height="0.867"/>
	<g>
		<path fill="#EEDAD3" d="M220.947,107.674c0,0,1.776,0.838,2.393,0.961c0.617,0.124,3.011,3.231,3.43,4.367
			c0.42,1.135,0,2.838-0.862,4.836c-0.864,1.998-0.051,2.664-0.444,4.662c-0.396,1.998-0.395,7.447-0.321,8.557
			c0.074,1.11-10.822,3.884-13.116,1.861c0,0,1.53-5.352,2.78-8.063c0.242-0.521,0.369-2.847,0.098-3.538s-3.331-5.848-3.331-5.848
			s-0.632-5.145,0.702-6.182c1.159-0.899,4.728-1.307,5.295-1.504C218.136,107.587,219.788,107.5,220.947,107.674z"/>
	</g>
	<g>
		<g>
			<path fill="#233348" d="M210.417,80.846c0,0-1.425-3.116-4.305-1.75c-2.879,1.365-2.403,5.5-1.335,7.246
				c1.067,1.746,4.89,4.328,3.647,7.475c-1.243,3.146-2.816,5.58-2.816,5.58s7.716-0.35,8.576-4.449
				C215.045,90.848,210.417,80.846,210.417,80.846z"/>
		</g>
		<path fill="#F18E2A" d="M225.819,117.804c-0.235-1.145-0.417-1.105-0.546-2.756c-0.13-1.65-0.295-9.537-0.332-10.51
			c-0.039-0.97-0.226-5.541-1.272-7.45c-1.069-1.954-4.538-3.133-4.538-3.133s1.794,9.574,1.773,11.562
			c-0.006,0.598,0.186,1.688,0.462,2.941c0.003,0.009,0.005,0.019,0.006,0.029c0.059,0.275,0.061,0.513,0.034,0.726
			c-0.088,0.717-0.495,1.195-0.245,2.133l-0.005,0.502c0.024,0.094,0.05,0.188,0.075,0.283c0.353,1.353,0.679,2.797,0.831,3.444
			c0.031,0.136,0.056,0.236,0.071,0.293c0.233,0.875-0.051,0.41,0.363,2.603C222.497,118.472,226.269,120.005,225.819,117.804z"/>
		<path fill="#8F503B" d="M206.201,124.045c0,0-2.967,3.858-3.771,8.434c-0.804,4.574,0.476,19.932,0.441,22.192
			c-0.036,2.262-2.139,7.889-1.719,12.148c0.421,4.262,3.931,25.706,3.931,25.706l2.762-0.508c0,0-0.329-22.251-0.066-24.04
			c0.264-1.788,0.791-8.306,0.896-9.043c0.105-0.734,6.677-20.069,6.677-23.369C215.351,132.268,213.353,118.665,206.201,124.045z"
			/>
		<path fill="#8F503B" d="M221.101,125.553c0,0,4.874,18.6,5.453,21.177c0.578,2.577,1.416,4.703,1.416,5.797
			c0,2.538,0.983,7.429,0.983,7.429l5.31,29.984h-3.042c0,0-7.529-19.601-8.376-24.045c-0.652-3.419-0.775-7.713-1.302-9.187
			c-0.526-1.472-9.452-17.552-9.452-17.552S206.078,120.155,221.101,125.553z"/>
		<path fill="#2A2C48" d="M227.97,152.527c0,0-11.271,4.841-28.056,4.841c0,0,0.737-21.866,3.177-27.343s18.399-3.012,18.399-3.012
			S227.97,147.938,227.97,152.527z"/>
		<g>
			<path fill="#F18E2A" d="M222.848,107.429c-1.265,2.928-0.072,3.902-0.65,6.832c-0.578,2.927-0.578,10.91-0.471,12.537
				c0.11,1.625-15.855,5.691-19.216,2.726c0,0,0.874-3.062,1.979-6.328c0.136-0.402,0.275-0.811,0.419-1.215
				c0.548-1.562,1.13-3.088,1.676-4.269c0.353-0.767,0.539-4.175,0.141-5.187c-0.153-0.391-0.915-1.757-1.792-3.286
				c-0.367-0.639-0.753-1.305-1.123-1.94c-1.044-1.79-1.963-3.342-1.963-3.342s-0.928-7.537,1.027-9.056
				c0.669-0.518,1.882-0.924,3.158-1.246c0.479-0.119,0.971-0.228,1.442-0.325c1.469-0.303,2.776-0.5,3.159-0.633
				c0.831-0.29,3.249-0.416,4.948-0.163c0,0,2.603,1.229,3.506,1.41c0.904,0.18,4.41,4.735,5.025,6.399
				C224.729,102.005,224.114,104.5,222.848,107.429z"/>
		</g>
		<g>
			<path fill="#8F503B" d="M216.826,89.533c0,0-0.065,0.599-0.145,1.443c-0.037,0.384-0.075,0.82-0.114,1.273
				c-0.11,1.354-0.204,2.86-0.152,3.613c0,0-2.705,2.707-5.78-3.163c0,0,1.295-2.421,0.319-5.721
				C209.979,83.68,216.826,89.533,216.826,89.533z"/>
		</g>
		<path fill="#8F503B" d="M208.556,93.115c0,0,3.273,5.314,6.968,5.091c5.115-0.31,2.422-4.639,2.422-4.639s-1.274-0.73-1.632-0.8
			c-0.358-0.068-5.647-0.135-5.647-0.135L208.556,93.115z"/>
		<g>
			<path fill="#F18E2A" d="M206.549,94.114c0,0-3.41-0.589-5.273,2.444c-2.132,3.473-2.096,5.07-2.425,6.824
				c-0.31,1.654-1.329,4.318-1.457,4.783c-0.13,0.464-2.604,5.199-1.58,7.204c1.03,2.017,10.769,3.497,10.884,3.921
				c0.073,0.271,1.151-3.42,1.151-3.42s-1.432-0.304-2.813-0.76c-1.682-0.556-3.367-1.618-3.136-2.48
				c0.509-1.899,2.226-6.239,2.7-7.143C205.074,104.587,209.26,95.409,206.549,94.114z"/>
		</g>
		<path fill="#52588D" d="M231.677,189.622c0,0,1.062-0.945,1.592-1.056c0.531-0.111,1.033-0.084,1.257,0.165
			c0.223,0.252,0.867,1.257,1.215,1.563c0.348,0.309,2.832,2.71,3.418,2.877c0.587,0.167,3.127,0.027,2.987,1.508
			c-0.14,1.479-2.205,2.119-5.891,1.785c-3.685-0.334-3.237-1.199-5.303-1.646c-2.066-0.448-2.205-1.48-1.842-2.737
			c0.362-1.257,1.825-2.506,1.674-2.84S231.677,189.622,231.677,189.622z"/>
		<path fill="#52588D" d="M205.644,192.301c0,0,1.178-0.535,1.961-0.508c0.784,0.029,0.699,0.508,0.896,0.801
			s2.044,3.092,2.547,3.596c0.505,0.503,2.296,1.036,2.044,2.295s-2.519,1.765-5.318,1.398c-2.8-0.361-4.172-2.966-4.619-3.554
			c-0.447-0.589,1.064-4.367,1.512-4.633C205.113,191.432,205.644,192.301,205.644,192.301z"/>
		<path fill="#C9B9B3" d="M224.134,103.66c0,0-0.746,2.671-1.357,3.994c-0.611,1.325-0.506,2.954-0.458,3.945
			c0.048,0.996,0.022,2.163-0.294,3.817c0,0,0.046,1.41,0.323,1.398C222.348,116.815,223.641,113.272,224.134,103.66z"/>
		<g>
			<path fill="#52588D" d="M208.219,79.283c0,0-1.603,0.801-1.515,3.147c0.09,2.345,2.388,4.154,3.384,3.677
				C211.085,85.629,208.219,79.283,208.219,79.283z"/>
		</g>
		<g>
			<path fill="#8F503B" d="M218.369,75.722c0,0,3.116,2.048,2.85,6.382c-0.267,4.333-1.721,8.666-2.611,9.052
				c-0.891,0.385-4.681-1.028-5.432-1.425c-0.852-0.451-2.324-2.088-2.622-2.592c-0.296-0.505-3.432-7.38-0.405-9.992
				C213.175,74.536,214.749,74.417,218.369,75.722z"/>
		</g>
		<g>
			<path fill="#233348" d="M215.876,80.886c0,0,2.672,0.983,5.356,0.744c0,0,0.876-7.659-6.796-7.659
				c-7.673,0-6.544,7.658-6.396,8.696c0.147,1.039,1.554,4.77,3.197,5.633c0,0-0.586-3.941,0.513-4.654
				C212.849,82.935,215.312,82.074,215.876,80.886z"/>
		</g>
		<g>
			<path fill="#8F503B" d="M213.324,82.816c-0.157-0.872-0.979-1.693-1.93-0.802c-0.949,0.891,0.653,3.117,1.336,2.998
				S213.532,83.973,213.324,82.816z"/>
		</g>
		<path fill="#623729" d="M216.681,90.976c-0.037,0.384-0.075,0.82-0.114,1.273c-2.604-0.946-3.678-2.698-3.678-2.698
			C213.557,90.097,216.681,90.976,216.681,90.976z"/>
		<g>
			<circle fill="#F8BC68" cx="225.395" cy="98.573" r="23.626"/>
			<path fill="#F8BC68" d="M236.657,119.342l-19.971-42.731c11.534-4.588,24.788,0.566,30.112,11.958
				C252.123,99.961,247.575,113.435,236.657,119.342z"/>
			<path fill="#F8BC68" d="M203.992,108.576c-4.683-10.019-1.729-21.648,6.478-28.323l19.406,41.522
				C219.489,123.789,208.674,118.596,203.992,108.576z"/>
			<circle fill="#F4982D" cx="225.395" cy="98.573" r="17.956"/>
			<g>
				<path fill="#F8C681" d="M223.304,106.18c0.217,0.091,0.506,0.162,0.869,0.215c0.362,0.053,0.764,0.078,1.206,0.073
					s0.908-0.048,1.399-0.133c0.492-0.085,0.974-0.22,1.448-0.4l-2.299-4.921l-0.495,0.117c-0.952,0.194-1.831,0.325-2.639,0.394
					c-0.809,0.068-1.534,0.032-2.18-0.11c-0.646-0.142-1.223-0.416-1.732-0.826c-0.509-0.409-0.941-0.993-1.297-1.752
					c-0.392-0.84-0.576-1.627-0.553-2.362c0.022-0.734,0.207-1.424,0.553-2.067c0.347-0.645,0.824-1.229,1.437-1.757
					c0.612-0.527,1.318-0.987,2.12-1.381l-1.167-2.495l1.235-0.578l1.188,2.542c1.178-0.452,2.368-0.734,3.571-0.843
					c1.204-0.11,2.389-0.031,3.555,0.236l-0.146,2.847c-0.263-0.108-0.613-0.197-1.049-0.263c-0.437-0.066-0.925-0.098-1.464-0.097
					c-0.54,0.001-1.112,0.047-1.717,0.136c-0.605,0.089-1.207,0.236-1.807,0.439l2.298,4.917c0.109-0.011,0.222-0.031,0.336-0.055
					c0.115-0.024,0.226-0.043,0.336-0.055c0.944-0.171,1.785-0.28,2.525-0.326c0.74-0.048,1.398,0.007,1.973,0.163
					c0.574,0.156,1.078,0.418,1.511,0.786c0.432,0.367,0.803,0.884,1.114,1.547c0.363,0.776,0.551,1.529,0.562,2.257
					c0.013,0.728-0.125,1.424-0.412,2.09c-0.288,0.664-0.703,1.272-1.245,1.826c-0.543,0.552-1.195,1.046-1.958,1.479l1.122,2.4
					l-1.235,0.577l-1.122-2.398c-1.06,0.417-2.105,0.654-3.14,0.714c-1.033,0.058-1.998-0.002-2.893-0.183L223.304,106.18z
					 M230.856,101.898c-0.311-0.666-0.777-1.056-1.399-1.17c-0.623-0.114-1.47-0.075-2.538,0.114l2.188,4.681
					c0.944-0.499,1.552-1.058,1.822-1.678C231.199,103.227,231.174,102.578,230.856,101.898z M220.304,97.218
					c0.325,0.697,0.849,1.094,1.569,1.191c0.722,0.098,1.647,0.056,2.777-0.125l-2.198-4.705c-1.006,0.489-1.698,1.044-2.073,1.664
					C220.003,95.863,219.978,96.521,220.304,97.218z"/>
			</g>
			<path fill="#F9F8F8" d="M239.917,117.213c8.513-6.619,11.64-18.462,6.882-28.644c-4.759-10.181-15.85-15.379-26.389-13.094
				L239.917,117.213z"/>
			<path fill="#F9F8F8" d="M229.875,121.775l-19.406-41.522c1.476-1.2,3.121-2.241,4.923-3.083c0.429-0.2,0.859-0.387,1.294-0.558
				l19.971,42.731c-0.411,0.222-0.83,0.435-1.259,0.634C233.596,120.818,231.743,121.413,229.875,121.775z"/>
		</g>
		<path fill="#8F503B" d="M244.746,110.139c0,0,1.752,1.298,1.297,2.616c-0.457,1.315-1.578,2.339-2.21,2.668
			c-0.632,0.33-2.328,1.088-2.498,0.277C240.788,113.096,244.746,110.139,244.746,110.139z"/>
		<path fill="#8F503B" d="M245.654,111.414c0,0,1.053-1.327,0.482-1.593s-1.063,0.863-1.063,0.863L245.654,111.414z"/>
		<g>
			<path fill="#8F503B" d="M207.268,115.875c0,0-1.436,0.229-1.25,0.811c0.187,0.581,0.51,1.315,0.51,1.315L207.268,115.875z"/>
			<path fill="#8F503B" d="M216.915,120.312l-5.57-2.577c0.609-0.063,1.618-0.217,1.549-0.526c-0.097-0.439-2.007-0.435-2.681-0.659
				c-0.617-0.205-1.544-0.137-1.695-0.123l-1.369-0.634l-0.62,2.208c0,0,2.809,1.68,3.639,2.129
				c1.347,0.728,6.357,0.993,6.542,0.773C217.042,120.506,216.915,120.312,216.915,120.312z"/>
		</g>
		<path fill="#F18E2A" d="M207.849,115.87c0,0-0.537,2.804-1.432,3.987c0,0-5.848-2.11-7.3-2.652l3.647-3.209
			C202.765,113.996,204.784,115.193,207.849,115.87z"/>
	</g>
	<g>
		<g>
			<g>
				<path fill="#8C92C8" d="M46.969,145.986c0,0,0.657,1.863,1.572,2.907c0.916,1.046,4.942,3.121,5.382,4.012
					c0.317,0.646,0.438,2.812-6.192,0.151c-4.711-1.891-7.158-2.337-7.383-3.291c-0.227-0.952,2.833-5.367,2.833-5.367
					S44.081,145.226,46.969,145.986z"/>
			</g>
		</g>
		<g>
			<path fill="#8C92C8" d="M12.522,155.756c0,0-0.983,3.458-1.257,4.625c-0.272,1.17,0.136,4.226-0.136,5.393
				c-0.272,1.169-0.95,1.504-1.494,1.348c-0.543-0.155-1.93-0.618-3.111-2.009c-1.181-1.392-0.717-3.962-0.86-5.603
				c-0.133-1.536-0.815-2.349,0.511-3.623c1.71-1.646,1.938-2.589,1.938-2.589L12.522,155.756z"/>
		</g>
		<g>
			<path fill="#2A2C48" d="M36.587,107.45c0,0-0.601,6.747-1.199,10.789c-0.552,3.726-3.666,15.489-4.755,17.036
				c-1.982,2.815-6.5,7.514-7.437,8.75c-1.525,2.014-10.593,14.048-10.593,14.048s-2.542-0.563-5.874-3.724
				c0,0,9.458-10.709,10.87-13.876c1.072-2.408,5.706-9.343,5.683-10.459c-0.038-1.863,1.289-22.582,3.172-26.278
				C28.337,100.042,36.587,107.45,36.587,107.45z"/>
		</g>
		<g>
			<path fill="#2A2C48" d="M42.309,103.436c0,0,11.779,10.679,13.224,13.103c1.444,2.423,2.372,2.732,1.753,5.312
				s-9.591,23.386-9.749,24.038c-0.171,0.716-4.747-1.438-5.158-1.49c-0.413-0.051,1.923-6.275,2.801-8.802
				c0.876-2.529,3.569-11.167,4.291-12.455c0.723-1.291-14.519-9.182-16.118-11.091C31.753,110.141,34.056,101.287,42.309,103.436z"
				/>
		</g>
		<path fill="#D98A51" d="M43.114,104.445c0,0-7.583,8.367-20.042,12.869l1.974-7.427L43.114,104.445z"/>
		<g>
			<path fill="#EEA886" d="M53.262,61.528c1.196-2.537,4.456-14.39,4.456-14.39l-2.586-0.321c0,0-1.715,2.934-3.706,8.299
				c-0.593,1.601-3.015,4.576-3.134,4.848c-0.119,0.272-4.761,6.027-6.613,7.07c-0.865,0.49-2.74,1.743-3.944,3.262
				c-1.207,1.519-0.346,3.33-0.346,3.33c3.265,3.382,8.049-1.984,8.049-1.984S51.088,66.141,53.262,61.528z"/>
		</g>
		<path fill="#323657" d="M43.86,86.448c0,0-0.223,1.678-1.349,2.255l-0.971-1.839L43.86,86.448z"/>
		<path fill="#323657" d="M27.054,93.955c-0.158,2.865-0.784,5.884-2.083,8.982c0,0-4.072,1.682-6.039-0.87
			c-0.774-1.005-1.45-4.382-1.736-8.69c-0.439-6.633,0.048-15.472,2.529-21.252C19.725,72.125,27.745,81.577,27.054,93.955z"/>
		<path fill="#989DCF" d="M27.054,93.955c-0.158,2.865-0.784,5.884-2.083,8.982c0,0-4.072,1.682-6.039-0.87
			c-0.774-1.005-1.45-4.382-1.736-8.69L27.054,93.955z"/>
		<path fill="#EEA886" d="M60.625,40.124c-0.221-0.014-1.346,1.958-1.815,2.8c-0.015-0.012-0.03-0.023-0.046-0.035
			c0.429-1.088,1.575-3.998,1.682-4.281c0.133-0.349-0.26-0.598-0.475-0.481c-0.2,0.109-1.641,3.159-2.161,4.27
			c-0.009-0.003-0.018-0.006-0.026-0.01c0.466-1.194,1.789-4.599,1.812-4.786c0.03-0.227-0.429-0.382-0.559-0.247
			c-0.187,0.194-1.795,3.652-2.308,4.758c-0.025-0.004-0.049-0.008-0.073-0.011c0.227-0.956,0.845-3.567,0.92-3.904
			c0.091-0.413-0.141-0.507-0.461-0.299c-0.287,0.187-1.255,3.721-1.449,4.439c-0.267,0.626-0.434,2.264-0.733,1.944
			c-0.339-0.362-1.589-2.318-2.092-2.114c-0.502,0.205,0.511,1.314,0.693,1.734c0.136,0.314,0.575,1.335,1.153,1.812
			c0.681,0.56,0.389,2.025,0.389,2.025l2.355,0.289c0,0,0.208-0.734,0.349-1.043c0.111-0.244,1.254-1.561,1.538-3.011
			c0.004-0.023,0.008-0.046,0.011-0.069l0,0c0,0,0.917-2.038,1.392-2.845C61.198,40.251,60.796,40.135,60.625,40.124z"/>
		<g>
			<path fill="#EEA886" d="M2.269,106.72c0,0-2.119,3.982-2.027,4.353c0.092,0.369,0.327,0.458,0.541,0.094
				c0.215-0.363,2.165-3.794,2.165-3.794s-1.675,5.087-1.671,5.408c0.003,0.188,0.444,0.387,0.578,0.198
				c0.134-0.185,2.1-5.146,2.1-5.146s-1.555,4.753-1.466,5.019c0.078,0.231,0.535,0.316,0.675-0.029s1.848-4.686,1.848-4.686
				s-0.902,3.521-0.685,3.699c0.133,0.109,0.506,0.297,0.708-0.618c0.204-0.913,0.921-3.03,0.921-3.03L2.269,106.72z"/>
		</g>
		<g>
			<g>
				<path fill="#EEA886" d="M5.457,102.484c0,0-0.785,1.271-1.665,1.215c-0.749-0.046-1.765,0.403-2.078,0.54
					c-0.42,0.184-1.918,0.305-1.69,0.795c0.228,0.491,2.478-0.085,2.972-0.119c0.496-0.034-0.845,1.654-0.836,2.135
					c0.009,0.483,3.057,2.335,3.837,1.08c0.779-1.256,0.743-3.055,0.926-3.252c0.183-0.196,0.605-0.893,0.605-0.893L5.457,102.484z"
					/>
			</g>
		</g>
		<path fill="#D44141" d="M33.883,68.365c0,0,4.336,0.85,6.272-0.327c0.737,0.513,2.308,7.458,2.551,9.048
			c0.243,1.592,0.256,8.345-0.152,10.903c-0.408,2.559,1.967,14.293,0.903,16.172c0,0-8.864,7.73-19.381,7.495
			c0,0-0.085-14.656-0.866-18.019c-1-4.307-3.357-14.228-3.357-14.228s-1.099-6.647-0.008-7.188c2.352-1.165,8.63-3.454,8.63-3.454
			L33.883,68.365z"/>
		<path fill="#EEA987" d="M35.062,69.581c0,0-1.438,0.827-6.589-0.812c0,0-0.222-3.387-1.525-6.432
			c-1.302-3.045,7.05,3.49,7.05,3.49c-0.073,0.065-0.055,0.381,0.038,0.816c0.078,0.369,0.209,0.82,0.382,1.275
			C34.808,68.942,34.723,68.761,35.062,69.581z"/>
		<path fill="#A77961" d="M34.418,67.918c-4.973-0.298-6.001-2.997-6.017-3.038c2.162,2.245,5.635,1.763,5.635,1.763
			C34.114,67.012,34.246,67.463,34.418,67.918z"/>
		<g>
			<path fill="#EEA886" d="M17.711,92.626C15.815,94.692,7.25,104.463,7.25,104.463l-1.98-1.717c0,0,2.518-4.589,6.039-9.64
				c0.976-1.4,2.269-4.695,2.46-4.923c0.191-0.229,3.062-6.968,3.392-9.067c0.129-0.834,0.92-3.294,1.433-5.39
				c0.574-2.345,6.002-3.496,6.002-3.496c4.481,1.42-1.638,10.202-1.638,10.202S20.369,89.728,17.711,92.626z"/>
		</g>
		<path fill="#D44141" d="M23.15,81.431l-6.707-1.182c0,0,0.139-6.939,4.81-9.205c4.672-2.267,7.221-2.275,7.221-2.275L23.15,81.431
			z"/>
		<g>
			<path fill="#323657" d="M22.972,92.44l-1.111-0.945c3.889-4.565,5.147-9.38,3.739-14.311c-1.053-3.688-3.656-6.434-3.678-6.456
				l1.423-0.615c0.101,0.106,2.506,2.642,3.656,6.671c0.68,2.378,0.789,4.781,0.324,7.143C26.75,86.861,25.284,89.726,22.972,92.44z
				"/>
		</g>
		<path fill="#D44141" d="M42.925,66.056l3.128,6.068c0,0-2.475,1.987-3.353,7.139C41.97,83.55,38.139,68.61,38.139,68.61
			S39.879,68.453,42.925,66.056z"/>
		<g>
			<path fill="#323657" d="M43.86,86.448l-1.192,0.611c0.604-7.729-0.429-11.506-1.314-14.155c-0.953-2.851-2.469-4.465-2.482-4.477
				l1.397-0.611C40.494,68.036,45.388,72.321,43.86,86.448z"/>
		</g>
		<path fill="#EEA987" d="M35.653,68.6c0,0,4.904,6.5,0.796,8.07c-5.359,2.048-9.809-7.619-9.809-7.619S29.731,67.784,35.653,68.6z"
			/>
		<g>
			<path fill="#EEA886" d="M32.664,52.054c0,0,4.159,0.456,4.455,7.99c0.326,8.311-5.851,7.13-7.58,5.875
				c-1.729-1.254-3.442-4.316-3.931-6.757C25.119,56.721,24.456,50.03,32.664,52.054z"/>
		</g>
		<g>
			<path fill="#323657" d="M36.841,56.828c0,0-0.6-2.693-3.868-1.557c-3.268,1.135-6.061,4.318-5.372,8.51
				c0,0-5.952-6.816-2.8-10.601C27.954,49.396,35.581,49.451,36.841,56.828z"/>
		</g>
		<g>
			<path fill="#FBCDA3" d="M32.148,55.606c0,0,4.213,2.854,5.245,2.768C37.393,58.374,37.088,53.243,32.148,55.606z"/>
		</g>
		<path fill="#EEA886" d="M27.953,59.988c-0.356-0.697-1.378-1.544-1.585-0.378c-0.208,1.164,1.312,3.481,1.715,3.051
			C28.487,62.229,28.609,61.27,27.953,59.988z"/>
		<path fill="#323657" d="M21.922,70.729c0,0,0.61-0.512,1.423-0.615C23.346,70.114,22.522,70.735,21.922,70.729z"/>
		<g>
			<circle fill="#F8BC68" cx="57.717" cy="22.602" r="22.597"/>
			<path fill="#F8BC68" d="M68.488,42.467L49.387,1.597c11.032-4.388,23.709,0.542,28.801,11.438S78.931,36.817,68.488,42.467z"/>
			<path fill="#F8BC68" d="M37.246,32.169c-4.478-9.583-1.654-20.706,6.196-27.091l18.561,39.715
				C52.069,46.72,41.725,41.752,37.246,32.169z"/>
			<circle fill="#F4982D" cx="57.717" cy="22.602" r="17.174"/>
			<g>
				<path fill="#F8C681" d="M64.009,19.748c-0.112-0.194-0.293-0.416-0.539-0.664c-0.247-0.249-0.54-0.499-0.88-0.75
					c-0.341-0.251-0.723-0.485-1.146-0.703c-0.425-0.217-0.871-0.393-1.338-0.525l-1.07,5.081l0.445,0.196
					c0.838,0.399,1.587,0.804,2.244,1.216c0.657,0.412,1.19,0.857,1.602,1.337c0.412,0.48,0.695,1.022,0.849,1.627
					c0.155,0.605,0.15,1.3-0.016,2.085c-0.182,0.867-0.494,1.575-0.934,2.123c-0.44,0.548-0.977,0.969-1.611,1.263
					c-0.635,0.293-1.337,0.466-2.109,0.518c-0.771,0.051-1.576-0.003-2.413-0.162l-0.544,2.577l-1.276-0.269l0.553-2.626
					c-1.16-0.33-2.232-0.798-3.215-1.407c-0.982-0.608-1.842-1.349-2.582-2.223l1.747-2.093c0.139,0.234,0.356,0.502,0.651,0.803
					c0.295,0.302,0.65,0.607,1.063,0.917s0.876,0.604,1.392,0.882c0.513,0.279,1.057,0.514,1.633,0.703l1.07-5.081
					c-0.091-0.053-0.188-0.104-0.288-0.15c-0.102-0.047-0.198-0.097-0.29-0.15c-0.819-0.412-1.524-0.812-2.117-1.202
					c-0.594-0.39-1.065-0.809-1.414-1.259c-0.351-0.45-0.585-0.939-0.704-1.468c-0.119-0.529-0.106-1.138,0.039-1.825
					c0.168-0.802,0.457-1.484,0.866-2.048c0.41-0.563,0.915-1.016,1.518-1.359c0.601-0.343,1.269-0.57,2.001-0.681
					c0.732-0.111,1.514-0.113,2.347-0.006l0.522-2.479l1.276,0.269l-0.522,2.479c1.049,0.289,1.987,0.709,2.812,1.258
					c0.824,0.549,1.527,1.15,2.107,1.802L64.009,19.748z M55.776,18.681c-0.145,0.687-0.013,1.253,0.398,1.699
					c0.41,0.445,1.078,0.902,2.005,1.371l1.018-4.835c-1.008-0.162-1.794-0.083-2.356,0.234
					C56.278,17.466,55.923,17.978,55.776,18.681z M61.153,28.323c0.152-0.72-0.021-1.325-0.515-1.813
					c-0.496-0.489-1.228-0.989-2.196-1.501l-1.024,4.86c1.051,0.205,1.898,0.178,2.542-0.08
					C60.604,29.532,61.001,29.043,61.153,28.323z"/>
			</g>
			<path fill="#F9F8F8" d="M71.607,40.431c8.141-6.33,11.132-17.658,6.581-27.396C73.638,3.296,63.029-1.675,52.95,0.509
				L71.607,40.431z"/>
			<path fill="#F9F8F8" d="M62.003,44.794L43.442,5.079c1.411-1.148,2.984-2.143,4.708-2.948c0.41-0.192,0.823-0.37,1.237-0.534
				l19.101,40.87c-0.393,0.212-0.793,0.415-1.204,0.606C65.562,43.878,63.789,44.448,62.003,44.794z"/>
		</g>
	</g>
</g>
</svg>
